<svg width="25" height="20" viewBox="0 0 25 20" fill="none" xmlns="http://www.w3.org/2000/svg">
<path fill-rule="evenodd" clip-rule="evenodd" d="M24.0536 5.79482C22.425 2.26365 18.9868 0.181231 15.3676 0H5.14342C4.23855 0 3.60512 0.724488 3.60512 1.53937C3.60512 2.44466 4.32911 3.07853 5.14342 3.07853H7.76726C8.31014 3.07853 8.76247 3.53118 8.76247 4.07443C8.76247 4.61769 8.31014 5.07055 7.76726 5.07055H1.34328C0.800398 5.07055 0.347855 5.52319 0.347855 6.06645C0.347855 6.60971 0.800398 7.06235 1.34328 7.06235H5.95774C6.50062 7.06235 6.95294 7.51521 6.95294 8.05847C6.95294 8.60172 6.50062 9.05437 5.95774 9.05437H3.06225C2.51937 9.05437 2.06704 9.50701 2.06704 10.0503C2.06704 10.5935 2.51937 11.0464 3.06225 11.0464H5.05287C5.14342 12.1329 5.41486 13.2194 5.86719 14.2153C8.12925 19.1953 14.1009 21.3683 19.0771 19.1046C24.2345 16.7506 26.406 10.7748 24.0536 5.79482Z" fill="#4F5D7F"/>
</svg>
